# xmcd
#
# Track frame offsets:
#	150
#	18570
#	34860
#	49367
#	64855
#	78080
#	93240
#	108470
#	122475
#	139347
#	153890
#
# Disc length: 2273 seconds
#
# Revision: 1
# Processed by: cddbd v1.5.2PL0 Copyright (c) Steve Scherf et al.
# Submitted via: audiograbber 1.83.01
#
DISCID=8b08df0b
DTITLE=Matt Thigpen - Gone to Texas
DYEAR=1999
DGENRE=
TTITLE0=The Whiskey's Lost It's Proof
TTITLE1=Cold Day In Houston
TTITLE2=Gone to Texas
TTITLE3=Old Outlaws
TTITLE4=Lookin' Backwards on a Memory
TTITLE5=Leavin' Tennessee
TTITLE6=Can't Afford to Half my Half
TTITLE7=Blame It On Mexico
TTITLE8=Used to be My Place to Cry
TTITLE9=First Your Money (Then She Goes)
TTITLE10=Don't Say Goodbye
EXTD=
EXTT0=
EXTT1=
EXTT2=
EXTT3=
EXTT4=
EXTT5=
EXTT6=
EXTT7=
EXTT8=
EXTT9=
EXTT10=
PLAYORDER=
